# xmcd
# 
# Track frame offsets:
#	150
#	14275
#	36972
#	59752
#	71472
#	91950
#	112355
#	129652
#	147997
#	164325
#	180695
#	193100
#	216447
#
# Disc length: 3113 seconds
#
# Revision: 1
# Processed by: cddbd v1.4PL0 Copyright (c) Steve Scherf et al.
# Submitted via: Audio-CD-Archiv 2.10.446
#
DISCID=cd0c270d
DTITLE=Lightnin' Hopkins - Houston Bound
DYEAR=1900
DGENRE=blues
TTITLE0=Mojo Hand
TTITLE1=Houston Bound
TTITLE2=Awful Dreams
TTITLE3=Sometimes She Will
TTITLE4=Glory Be
TTITLE5=Shine On Moon
TTITLE6=Shotgun
TTITLE7=Black Mare Trot
TTITLE8=Coffee For Mama
TTITLE9=How Long Has The Train Been Gone
TTITLE10=Have You Ever Loved A Woman
TTITLE11=Baby I Don't Care
TTITLE12=Santa
EXTD=
EXTT0=
EXTT1=
EXTT2=
EXTT3=
EXTT4=
EXTT5=
EXTT6=
EXTT7=
EXTT8=
EXTT9=
EXTT10=
EXTT11=
EXTT12=
PLAYORDER=
